#!OML:ASF E:\Style4\Style4.ASF
:FULLY-SPECIFIED
:DEGREES
1372
root -0.0450617 16.6971 -1.50438 7.57942 16.6061 2.63864
lowerback 20.4037 4.02597 -0.635412
upperback 10.3635 5.21148 -0.637199
thorax -0.144723 2.6518 -1.35216
lowerneck 5.93901 -3.45187 -3.57845
upperneck -9.31731 -4.53905 4.77226
head -3.922 -2.34556 2.47576
rclavicle 5.4467e-014 -5.40694e-014
rhumerus 25.3134 15.9076 -73.9186
rradius 121.355
rwrist 20.7668
rhand 14.4429 -2.11003
rfingers 7.12502
rthumb 39.327 -27.5356
lclavicle 5.4467e-014 -5.40694e-014
lhumerus 20.2577 -16.8819 70.4976
lradius 118.449
lwrist -12.1607
lhand 14.3627 37.8807
lfingers 7.12502
lthumb 39.2515 63.3283
rfemur -35.0121 -10.0468 17.5974
rtibia 58.2932
rfoot -27.7087 -18.4884
rtoes -10.1371
lfemur -38.9182 -7.07368 -20.6961
ltibia 54.2735
lfoot -20.8359 -1.26577
ltoes -12.5961
1373
root -0.0431511 16.693 -1.5073 7.5854 16.5689 2.67189
lowerback 20.317 3.92144 -0.907864
upperback 10.4456 5.03703 -0.444792
thorax -0.0567584 2.5492 -0.953387
lowerneck 5.79649 -3.28465 -4.13343
upperneck -9.2274 -4.36851 4.74079
head -3.86145 -2.2387 2.55063
rclavicle 6.48038e-014 -1.82882e-014
rhumerus 26.023 16.1542 -73.7032
rradius 120.127
rwrist 20.74
rhand 14.4965 -1.97277
rfingers 7.12502
rthumb 39.3775 -27.3836
lclavicle 6.48038e-014 -1.82882e-014
lhumerus 19.7997 -16.5567 70.9022
lradius 118.492
lwrist -12.263
lhand 14.4345 38.0893
lfingers 7.12502
lthumb 39.3191 63.5171
rfemur -35.0757 -10.006 17.5449
rtibia 58.4221
rfoot -27.8471 -18.3588
rtoes -9.71075
lfemur -38.9625 -7.05427 -20.7409
ltibia 54.3517
lfoot -20.7814 -1.37628
ltoes -11.9915
1374
root -0.0391916 16.6898 -1.51076 7.59249 16.5541 2.66631
lowerback 20.3571 4.05465 -0.5871
upperback 10.4335 5.25968 -0.61289
thorax -0.0425907 2.67808 -1.35593
lowerneck 5.75865 -3.51583 -3.49511
upperneck -9.19716 -4.62841 4.6334
head -3.8434 -2.38545 2.40678
rclavicle -2.82274e-014 3.49861e-014
rhumerus 26.035 15.2943 -74.0524
rradius 118.73
rwrist 21.2342
rhand 14.4244 -1.95373
rfingers 7.12502
rthumb 39.3095 -27.3844
lclavicle -2.82274e-014 3.49861e-014
lhumerus 19.8789 -17.2877 70.8688
lradius 118.496
lwrist -11.9876
lhand 14.5818 38.2736
lfingers 7.12502
lthumb 39.4579 63.6609
rfemur -35.1366 -10.0024 17.5333
rtibia 58.5101
rfoot -27.8762 -18.3284
rtoes -9.57211
lfemur -39.016 -7.06227 -20.748
ltibia 54.4094
lfoot -20.7116 -1.45713
ltoes -11.5059
1375
root -0.0376973 16.6875 -1.51347 7.59928 16.5712 2.60715
lowerback 20.4303 4.17054 -0.246225
upperback 10.3673 5.46223 -0.77311
thorax -0.098777 2.79644 -1.76252
lowerneck 5.85011 -3.73723 -2.84818
upperneck -9.23597 -4.87544 4.53009
head -3.87894 -2.52699 2.27041
rclavicle 7.15625e-014 -2.62396e-014
rhumerus 25.8916 14.5301 -74.5492
rradius 117.188
rwrist 21.9603
rhand 14.5666 -2.36369
rfingers 7.12502
rthumb 39.4435 -27.7552
lclavicle 7.15625e-014 -2.62396e-014
lhumerus 19.9197 -17.9996 70.8173
lradius 118.466
lwrist -11.8302
lhand 14.7502 38.3822
lfingers 7.12502
lthumb 39.6165 63.7228
rfemur -35.1909 -9.97754 17.5938
rtibia 58.5517
rfoot -27.8903 -18.357
rtoes -9.48246
lfemur -39.075 -7.04799 -20.6968
ltibia 54.4545
lfoot -20.7805 -1.33473
ltoes -12.1293
1376
root -0.0373526 16.6853 -1.51596 7.61902 16.5923 2.63556
lowerback 20.451 4.1405 -0.307194
upperback 10.359 5.41336 -0.727356
thorax -0.129996 2.76798 -1.67298
lowerneck 5.83224 -3.69994 -2.99122
upperneck -9.21546 -4.84011 4.52117
head -3.86686 -2.50384 2.29019
rclavicle 7.27552e-014 -4.85035e-014
rhumerus 26.0408 14.3616 -74.8082
rradius 115.697
rwrist 22.1673
rhand 15.121 -2.33174
rfingers 7.12502
rthumb 39.9656 -27.5682
lclavicle 7.27552e-014 -4.85035e-014
lhumerus 19.6716 -18.0533 70.9972
lradius 118.397
lwrist -11.9417
lhand 14.6566 38.5904
lfingers 7.12502
lthumb 39.5283 63.957
rfemur -35.2182 -9.97614 17.5625
rtibia 58.572
rfoot -27.9005 -18.3523
rtoes -9.52508
lfemur -39.1061 -7.05699 -20.7324
ltibia 54.4711
lfoot -20.8578 -1.22752
ltoes -12.831
1377
root -0.0368417 16.687 -1.51767 7.6278 16.6064 2.65925
lowerback 20.4434 4.12007 -0.37904
upperback 10.3807 5.3767 -0.657835
thorax -0.117383 2.74512 -1.55099
lowerneck 5.78541 -3.67019 -3.16706
upperneck -9.22086 -4.81884 4.49207
head -3.85737 -2.48536 2.30945
rclavicle 4.69132e-014 -6.75868e-014
rhumerus 26.1971 14.1893 -74.9149
rradius 114.373
rwrist 22.0979
rhand 15.8877 -1.70411
rfingers 7.12502
rthumb 40.6866 -26.7193
lclavicle 4.69132e-014 -6.75868e-014
lhumerus 19.5054 -18.0423 71.2028
lradius 118.257
lwrist -11.9018
lhand 14.4512 38.6868
lfingers 7.12502
lthumb 39.3348 64.1101
rfemur -35.2331 -9.95221 17.541
rtibia 58.5565
rfoot -27.7702 -18.5309
rtoes -9.92473
lfemur -39.1103 -7.06768 -20.7582
ltibia 54.463
lfoot -20.869 -1.26412
ltoes -12.7689
1378
root -0.0368354 16.6881 -1.51938 7.6579 16.6021 2.68215
lowerback 20.4305 4.14911 -0.381852
upperback 10.3914 5.41407 -0.661684
thorax -0.0982146 2.76402 -1.55929
lowerneck 5.7001 -3.71038 -3.07087
upperneck -9.22026 -4.86972 4.41002
head -3.84168 -2.50966 2.26343
rclavicle 4.77083e-015 -4.77083e-015
rhumerus 26.1424 13.8983 -75.0414
rradius 113.319
rwrist 22.1935
rhand 16.7768 -1.59879
rfingers 7.12502
rthumb 41.5214 -26.3472
lclavicle 4.77083e-015 -4.77083e-015
lhumerus 19.5664 -18.0956 71.3234
lradius 118.038
lwrist -11.7398
lhand 14.699 38.4868
lfingers 7.12502
lthumb 39.5683 63.8417
rfemur -35.2699 -9.90732 17.513
rtibia 58.5367
rfoot -27.7068 -18.6163
rtoes -10.116
lfemur -39.1308 -7.08287 -20.7765
ltibia 54.4378
lfoot -20.9058 -1.24034
ltoes -12.8478
